# xmcd
#
# Track frame offsets:
#	150
#	13943
#	25154
#	36974
#	49075
#	61015
#	71276
#	82334
#	96402
#	116212
#
# Disc length: 1728 seconds
#
# Revision: 0
# Processed by: cddbd v1.5.1PL0 Copyright (c) Steve Scherf et al.
# Submitted via: dBpowerAMP V4.0
#
DISCID=8706be0a
DTITLE=Conway Twitty - Greatest Hits [K-Tell Entertainment]
DYEAR=1900
DGENRE=
TTITLE0=You've Never Been This Far Before
TTITLE1=Hello Darlin'
TTITLE2=To See My Angel Cry
TTITLE3=(Lyin Here With) Linda On My Mind
TTITLE4=I'm Not Through Loving You Yet
TTITLE5=It's Only make Believe
TTITLE6=(I Can't Believe) She Gives It All To Me
TTITLE7=Baby's Gone
TTITLE8=Don'y Cry Joni
TTITLE9=Danny Boy
EXTD=
EXTT0=
EXTT1=
EXTT2=
EXTT3=
EXTT4=
EXTT5=
EXTT6=
EXTT7=
EXTT8=
EXTT9=
PLAYORDER=
